<svg xmlns="http://www.w3.org/2000/svg" viewBox="0 0 792.99 711.66"><defs><style>.cls-1,.cls-100,.cls-51,.cls-95,.cls-96{fill:#fff;}.Demand-2,.Supply-2,.cls-101,.cls-14,.cls-54,.cls-67,.cls-68,.cls-82,.cls-83,.cls-94,.cls-98{fill:none;}.Supply-2{stroke:#ed1e79;}.Demand-2,.Supply-2,.cls-100,.cls-101,.cls-14,.cls-51,.cls-54,.cls-67,.cls-68,.cls-82,.cls-83,.cls-94,.cls-95,.cls-96,.cls-98{stroke-miterlimit:10;}.Demand-2,.Supply-2{stroke-width:3px;}.Demand-2{stroke:#009245;}.cls-2,.cls-69,.cls-9{font-size:30px;}.cls-15,.cls-2,.cls-9{fill:#231f20;}.cls-102,.cls-16,.cls-2,.cls-40,.cls-46,.cls-52,.cls-53,.cls-56,.cls-69,.cls-84,.cls-9,.cls-90,.cls-93{font-family:Roboto-Regular, Roboto;}.cls-2{letter-spacing:-0.01em;}.cls-3{letter-spacing:-0.02em;}.cls-4{letter-spacing:-0.01em;}.cls-5{letter-spacing:-0.02em;}.cls-6{letter-spacing:-0.01em;}.cls-7{letter-spacing:0.01em;}.cls-8{letter-spacing:-0.01em;}.cls-9{letter-spacing:0.01em;}.cls-10{letter-spacing:0em;}.cls-11{letter-spacing:-0.01em;}.cls-12{letter-spacing:0.02em;}.cls-13{letter-spacing:0.01em;}.cls-14{stroke:#231f20;}.cls-16{font-size:40px;letter-spacing:0.01em;}.cls-17{letter-spacing:-0.02em;}.cls-18{letter-spacing:0.02em;}.cls-19{letter-spacing:0.01em;}.cls-20{letter-spacing:0.01em;}.cls-21{letter-spacing:0em;}.cls-22{letter-spacing:0.01em;}.cls-23{letter-spacing:0.01em;}.cls-24{letter-spacing:-0.02em;}.cls-25{letter-spacing:0.01em;}.cls-26{letter-spacing:0em;}.cls-27{letter-spacing:-0.01em;}.cls-28,.cls-69{letter-spacing:-0.02em;}.cls-29{letter-spacing:0.01em;}.cls-30{letter-spacing:0.02em;}.cls-31{letter-spacing:-0.02em;}.cls-32{letter-spacing:0em;}.cls-33{letter-spacing:-0.01em;}.cls-34{letter-spacing:0em;}.cls-35{letter-spacing:-0.01em;}.cls-36{letter-spacing:-0.01em;}.cls-37{letter-spacing:-0.01em;}.cls-38{letter-spacing:-0.01em;}.cls-39{letter-spacing:0em;}.cls-40,.cls-46,.cls-52,.cls-53{font-size:24px;}.cls-40,.cls-55,.cls-56,.cls-84{fill:#006837;}.cls-40{letter-spacing:0.01em;}.cls-41{letter-spacing:0.01em;}.cls-42{letter-spacing:0em;}.cls-43{letter-spacing:0em;}.cls-44{letter-spacing:-0.01em;}.cls-45{letter-spacing:0.02em;}.cls-46,.cls-90,.cls-93,.cls-99{fill:red;}.cls-46{letter-spacing:-0.01em;}.cls-47{letter-spacing:-0.01em;}.cls-48{letter-spacing:-0.02em;}.cls-49{letter-spacing:0.01em;}.cls-50{letter-spacing:-0.01em;}.cls-51{stroke:#b3b3b3;}.cls-52,.cls-88{letter-spacing:-0.01em;}.cls-53{letter-spacing:-0.03em;}.cls-54,.cls-83{stroke:#006837;}.cls-102,.cls-56,.cls-84,.cls-90,.cls-93{font-size:16px;}.cls-56,.cls-87,.cls-93{letter-spacing:-0.03em;}.cls-57{letter-spacing:0.01em;}.cls-58{letter-spacing:0em;}.cls-59{letter-spacing:0.03em;}.cls-60{letter-spacing:0em;}.cls-61{letter-spacing:0.01em;}.cls-62{letter-spacing:-0.01em;}.cls-63{letter-spacing:-0.03em;}.cls-64{letter-spacing:-0.01em;}.cls-65{letter-spacing:0.02em;}.cls-66{letter-spacing:-0.03em;}.cls-100,.cls-67,.cls-68{stroke:#ff1d25;}.cls-68{stroke-dasharray:3.99 3.99;}.cls-70{letter-spacing:0.03em;}.cls-71{letter-spacing:0em;}.cls-72{letter-spacing:0.01em;}.cls-73{letter-spacing:-0.02em;}.cls-74{letter-spacing:0.02em;}.cls-75{letter-spacing:-0.02em;}.cls-76{letter-spacing:0em;}.cls-77{letter-spacing:-0.01em;}.cls-78{letter-spacing:-0.01em;}.cls-79{letter-spacing:0em;}.cls-80{letter-spacing:0.02em;}.cls-81{letter-spacing:0.01em;}.cls-82,.cls-96,.cls-98{stroke:red;}.cls-101,.cls-82,.cls-83{stroke-dasharray:4;}.cls-82,.cls-97{opacity:0.6;}.cls-85{letter-spacing:-0.03em;}.cls-86{letter-spacing:0.01em;}.cls-89{letter-spacing:-0.02em;}.cls-91{letter-spacing:0.02em;}.cls-92{letter-spacing:-0.02em;}.cls-94{stroke:#000;}.cls-95{stroke:#7ac943;}.cls-98{stroke-width:0.77px;}.cls-101{stroke:#bdccd4;}.cls-102{letter-spacing:-0.02em;}.cls-103{letter-spacing:0.03em;}.cls-104{letter-spacing:-0.01em;}.cls-105{letter-spacing:-0.01em;}</style></defs><title>market-equilibrium-shortage-surplus-diagram</title><g id="market-equilibrium-shortage-surplus-diagram"><rect class="cls-1" y="32.77" width="792.99" height="678.89" rx="21.83" ry="21.83"/><line class="Supply-2" x1="365.25" y1="644.16" x2="365.25" y2="85.16"/><line class="Demand-2" x1="85.22" y1="85.52" x2="643.72" y2="644.02"/><text class="cls-2" transform="translate(624.17 672.43) scale(0.93 1)">Q<tspan class="cls-3" x="20.37" y="0">u</tspan><tspan class="cls-4" x="36.45" y="0">a</tspan><tspan class="cls-5" x="52.53" y="0">n</tspan><tspan class="cls-6" x="68.61" y="0">t</tspan><tspan class="cls-7" x="78.26" y="0">i</tspan><tspan class="cls-6" x="85.76" y="0">t</tspan><tspan class="cls-8" x="95.41" y="0">y</tspan></text><text class="cls-9" transform="matrix(0.01, -0.99, 1, 0.01, 76.72, 128.77)">P<tspan class="cls-10" x="19.23" y="0">r</tspan><tspan class="cls-11" x="29.35" y="0">i</tspan><tspan class="cls-12" x="36.44" y="0">c</tspan><tspan class="cls-13" x="52.63" y="0">e</tspan></text><polyline class="cls-14" points="86.26 644.48 305.3 644.48 725.14 644.48"/><path class="cls-15" d="M731.17,644.48a30.34,30.34,0,0,0-8.55,4.76l1.72-4.76-1.72-4.75A30.31,30.31,0,0,0,731.17,644.48Z"/><line class="cls-14" x1="85.52" y1="644.48" x2="85.52" y2="60.5"/><path class="cls-15" d="M85.52,54.47A30.34,30.34,0,0,0,90.28,63L85.52,61.3,80.77,63A30.31,30.31,0,0,0,85.52,54.47Z"/><text class="cls-16" transform="translate(52.99 21.28) scale(0.58)">S<tspan class="cls-17" x="24.01" y="0">e</tspan><tspan class="cls-18" x="44.6" y="0">tt</tspan><tspan class="cls-19" x="72.04" y="0">i</tspan><tspan class="cls-20" x="82.33" y="0">n</tspan><tspan class="cls-21" x="104.63" y="0">g</tspan><tspan class="cls-22" x="126.93" y="0"> </tspan><tspan class="cls-18" x="137.22" y="0">t</tspan><tspan class="cls-23" x="150.94" y="0">h</tspan><tspan class="cls-17" x="173.24" y="0">e</tspan><tspan class="cls-22" x="193.83" y="0"> </tspan><tspan class="cls-24" x="204.12" y="0">R</tspan><tspan class="cls-19" x="228.13" y="0">i</tspan><tspan class="cls-21" x="238.42" y="0">g</tspan><tspan class="cls-23" x="260.72" y="0">h</tspan><tspan class="cls-18" x="283.02" y="0">t</tspan><tspan class="cls-22" x="296.74" y="0"> </tspan><tspan class="cls-25" x="307.03" y="0">P</tspan><tspan class="cls-26" x="332.76" y="0">r</tspan><tspan class="cls-19" x="346.48" y="0">i</tspan><tspan class="cls-27" x="356.78" y="0">c</tspan><tspan class="cls-17" x="377.36" y="0">e</tspan><tspan class="cls-22" x="397.94" y="0"> </tspan><tspan class="cls-28" x="408.23" y="0">M</tspan><tspan class="cls-29" x="442.54" y="0">a</tspan><tspan class="cls-30" x="464.84" y="0">x</tspan><tspan class="cls-19" x="485.42" y="0">i</tspan><tspan class="cls-31" x="495.71" y="0">m</tspan><tspan class="cls-19" x="530.02" y="0">i</tspan><tspan class="cls-30" x="540.31" y="0">z</tspan><tspan class="cls-17" x="560.89" y="0">e</tspan><tspan class="cls-32" x="581.48" y="0">s</tspan><tspan class="cls-22" x="602.06" y="0"> </tspan><tspan class="cls-25" x="612.35" y="0">P</tspan><tspan class="cls-26" x="638.08" y="0">r</tspan><tspan class="cls-33" x="651.8" y="0">o</tspan><tspan class="cls-34" x="674.1" y="0">f</tspan><tspan class="cls-19" x="687.82" y="0">i</tspan><tspan class="cls-18" x="698.11" y="0">t</tspan><tspan class="cls-32" x="711.84" y="0">s</tspan><tspan class="cls-22" x="732.42" y="0"> </tspan><tspan class="cls-29" x="742.71" y="0">a</tspan><tspan class="cls-20" x="765.01" y="0">n</tspan><tspan class="cls-35" x="787.31" y="0">d</tspan><tspan class="cls-22" x="809.61" y="0"> </tspan><tspan class="cls-36" x="819.9" y="0">A</tspan><tspan class="cls-19" x="845.63" y="0">ll</tspan><tspan class="cls-33" x="866.21" y="0">o</tspan><tspan class="cls-27" x="888.51" y="0">c</tspan><tspan class="cls-29" x="909.09" y="0">a</tspan><tspan class="cls-18" x="931.39" y="0">t</tspan><tspan class="cls-19" x="945.11" y="0">i</tspan><tspan class="cls-37" x="955.4" y="0">v</tspan><tspan class="cls-17" x="974.27" y="0">e</tspan><tspan class="cls-22" x="994.85" y="0"> </tspan><tspan class="cls-38" x="1005.15" y="0">E</tspan><tspan class="cls-34" x="1027.44" y="0">ff</tspan><tspan class="cls-19" x="1054.89" y="0">i</tspan><tspan class="cls-27" x="1065.18" y="0">c</tspan><tspan class="cls-19" x="1085.76" y="0">i</tspan><tspan class="cls-17" x="1096.05" y="0">e</tspan><tspan class="cls-20" x="1116.64" y="0">n</tspan><tspan class="cls-27" x="1138.94" y="0">c</tspan><tspan class="cls-39" x="1159.52" y="0">y</tspan></text><text class="cls-40" transform="translate(95.09 80.84) rotate(45)">D<tspan class="cls-41" x="16" y="0">e</tspan><tspan class="cls-42" x="29" y="0">m</tspan><tspan class="cls-43" x="50" y="0">a</tspan><tspan class="cls-44" x="63" y="0">n</tspan><tspan class="cls-45" x="76" y="0">d</tspan></text><text class="cls-46" transform="translate(330.22 75.62)">S<tspan class="cls-47" x="14" y="0">u</tspan><tspan class="cls-48" x="27" y="0">pp</tspan><tspan class="cls-49" x="53" y="0">l</tspan><tspan class="cls-50" x="59" y="0">y</tspan></text><line class="cls-51" x1="85.22" y1="85.52" x2="362.97" y2="364.77"/><circle class="cls-51" cx="364.97" cy="364.77" r="2"/><circle class="cls-51" cx="193.97" cy="194.77" r="2"/><text class="cls-52" transform="translate(54.47 367.1)">P</text><text class="cls-53" transform="translate(69.47 375.09) scale(0.58)">e</text><line class="cls-54" x1="374.46" y1="534.66" x2="526.02" y2="534.66"/><polygon class="cls-55" points="377.27 538.37 375.69 534.66 377.27 530.96 368.49 534.66 377.27 538.37"/><polygon class="cls-55" points="523.21 538.37 524.78 534.66 523.21 530.96 531.99 534.66 523.21 538.37"/><rect class="cls-1" x="384.99" y="524.66" width="125" height="20"/><text class="cls-56" transform="translate(390.99 539.66)">S<tspan class="cls-57" x="9" y="0">u</tspan><tspan class="cls-58" x="18" y="0">pp</tspan><tspan class="cls-49" x="36" y="0">l</tspan><tspan class="cls-59" x="40" y="0">y</tspan><tspan class="cls-60" x="48" y="0"> </tspan><tspan x="52" y="0">S</tspan><tspan class="cls-61" x="61" y="0">h</tspan><tspan class="cls-62" x="70" y="0">o</tspan><tspan class="cls-63" x="79" y="0">r</tspan><tspan class="cls-64" x="84" y="0">t</tspan><tspan class="cls-65" x="89" y="0">a</tspan><tspan class="cls-58" x="98" y="0">g</tspan><tspan class="cls-66" x="107" y="0">e</tspan></text><line class="cls-67" x1="193.99" y1="196.66" x2="193.99" y2="198.66"/><line class="cls-68" x1="193.99" y1="202.65" x2="193.99" y2="639.17"/><line class="cls-67" x1="193.99" y1="641.16" x2="193.99" y2="643.16"/><text class="cls-69" transform="translate(399.47 368.76) scale(0.58)">M<tspan class="cls-70" x="25.73" y="0">a</tspan><tspan class="cls-71" x="42.88" y="0">r</tspan><tspan class="cls-72" x="53.17" y="0">k</tspan><tspan class="cls-73" x="68.61" y="0">e</tspan><tspan class="cls-74" x="84.05" y="0">t</tspan><tspan class="cls-75" x="94.34" y="0"> </tspan><tspan class="cls-76" x="101.2" y="0">P</tspan><tspan class="cls-71" x="120.07" y="0">r</tspan><tspan class="cls-77" x="130.36" y="0">i</tspan><tspan class="cls-78" x="137.22" y="0">c</tspan><tspan class="cls-73" x="152.66" y="0">e</tspan><tspan class="cls-75" x="168.1" y="0"> </tspan><tspan class="cls-70" x="174.96" y="0">a</tspan><tspan class="cls-74" x="192.11" y="0">t</tspan><tspan class="cls-75" x="202.4" y="0"> </tspan><tspan class="cls-79" x="209.26" y="0">Eq</tspan><tspan class="cls-80" x="243.57" y="0">u</tspan><tspan class="cls-77" x="260.72" y="0">ili</tspan><tspan class="cls-81" x="281.3" y="0">b</tspan><tspan class="cls-71" x="298.46" y="0">r</tspan><tspan class="cls-77" x="308.75" y="0">i</tspan><tspan class="cls-80" x="315.61" y="0">u</tspan><tspan class="cls-75" x="332.76" y="0">m</tspan></text><line class="cls-82" x1="191.49" y1="195.16" x2="85.49" y2="195.16"/><line class="cls-83" x1="364.49" y1="535.16" x2="85.49" y2="535.16"/><text class="cls-84" transform="translate(479.4 662.29)"><tspan class="cls-85">H</tspan><tspan class="cls-49" x="11" y="0">i</tspan><tspan class="cls-58" x="15" y="0">g</tspan><tspan class="cls-61" x="24" y="0">h</tspan><tspan class="cls-66" x="33" y="0">e</tspan><tspan class="cls-63" x="41" y="0">r</tspan><tspan class="cls-60" x="46" y="0"> </tspan><tspan x="50" y="0">Q</tspan><tspan class="cls-57" x="61" y="0">u</tspan><tspan class="cls-65" x="70" y="0">a</tspan><tspan class="cls-86" x="79" y="0">n</tspan><tspan class="cls-64" x="88" y="0">t</tspan><tspan class="cls-49" x="93" y="0">i</tspan><tspan class="cls-64" x="97" y="0">t</tspan><tspan class="cls-59" x="102" y="0">y</tspan><tspan class="cls-87"><tspan x="0" y="19.2">D</tspan><tspan class="cls-66" x="10" y="19.2">e</tspan><tspan class="cls-42" x="18" y="19.2">m</tspan><tspan class="cls-65" x="32" y="19.2">a</tspan><tspan class="cls-86" x="41" y="19.2">n</tspan><tspan class="cls-42" x="50" y="19.2">d</tspan><tspan class="cls-66" x="59" y="19.2">e</tspan><tspan class="cls-42" x="67" y="19.2">d</tspan><tspan class="cls-60" x="76" y="19.2"> </tspan><tspan class="cls-65" x="80" y="19.2">a</tspan><tspan class="cls-64" x="89" y="19.2">t</tspan><tspan x="0" y="38.4">S</tspan><tspan class="cls-61" x="9" y="38.4">h</tspan><tspan class="cls-62" x="18" y="38.4">o</tspan><tspan class="cls-63" x="27" y="38.4">r</tspan><tspan class="cls-64" x="32" y="38.4">t</tspan><tspan class="cls-65" x="37" y="38.4">a</tspan><tspan class="cls-58" x="46" y="38.4">g</tspan><tspan class="cls-66" x="55" y="38.4">e</tspan><tspan class="cls-60" x="63" y="38.4"> </tspan><tspan class="cls-88" x="67" y="38.4">P</tspan><tspan class="cls-63" x="77" y="38.4">r</tspan><tspan class="cls-49" x="82" y="38.4">i</tspan><tspan class="cls-89" x="86" y="38.4">c</tspan><tspan class="cls-66" x="94" y="38.4">e</tspan></tspan></text><text class="cls-90" transform="translate(140.4 662.29)"><tspan class="cls-91">L</tspan><tspan class="cls-62" x="9" y="0">o</tspan><tspan class="cls-42" x="18" y="0">w</tspan><tspan class="cls-66" x="30" y="0">e</tspan><tspan class="cls-63" x="38" y="0">r</tspan><tspan class="cls-60" x="43" y="0"> </tspan><tspan x="47" y="0">Q</tspan><tspan class="cls-57" x="58" y="0">u</tspan><tspan class="cls-65" x="67" y="0">a</tspan><tspan class="cls-86" x="76" y="0">n</tspan><tspan class="cls-64" x="85" y="0">t</tspan><tspan class="cls-49" x="90" y="0">i</tspan><tspan class="cls-64" x="94" y="0">t</tspan><tspan class="cls-59" x="99" y="0">y</tspan><tspan class="cls-87"><tspan x="0" y="19.2">D</tspan><tspan class="cls-66" x="10" y="19.2">e</tspan><tspan class="cls-42" x="18" y="19.2">m</tspan><tspan class="cls-65" x="32" y="19.2">a</tspan><tspan class="cls-86" x="41" y="19.2">n</tspan><tspan class="cls-42" x="50" y="19.2">d</tspan><tspan class="cls-66" x="59" y="19.2">e</tspan><tspan class="cls-42" x="67" y="19.2">d</tspan><tspan class="cls-60" x="76" y="19.2"> </tspan><tspan class="cls-65" x="80" y="19.2">a</tspan><tspan class="cls-64" x="89" y="19.2">t</tspan><tspan x="0" y="38.4">S</tspan><tspan class="cls-57" x="9" y="38.4">u</tspan><tspan class="cls-63" x="18" y="38.4">r</tspan><tspan class="cls-58" x="23" y="38.4">p</tspan><tspan class="cls-49" x="32" y="38.4">l</tspan><tspan class="cls-57" x="36" y="38.4">u</tspan><tspan class="cls-92" x="45" y="38.4">s</tspan><tspan class="cls-60" x="53" y="38.4"> </tspan><tspan class="cls-88" x="57" y="38.4">P</tspan><tspan class="cls-63" x="67" y="38.4">r</tspan><tspan class="cls-49" x="72" y="38.4">i</tspan><tspan class="cls-89" x="76" y="38.4">c</tspan><tspan class="cls-66" x="84" y="38.4">e</tspan></tspan></text><text class="cls-56" transform="translate(15.4 531.29)">S<tspan class="cls-61" x="9" y="0">h</tspan><tspan class="cls-62" x="18" y="0">o</tspan><tspan class="cls-63" x="27" y="0">r</tspan><tspan class="cls-64" x="32" y="0">t</tspan><tspan class="cls-65" x="37" y="0">a</tspan><tspan class="cls-58" x="46" y="0">g</tspan><tspan class="cls-66" x="55" y="0">e</tspan><tspan class="cls-88"><tspan x="28" y="19.2">P</tspan><tspan class="cls-63" x="38" y="19.2">r</tspan><tspan class="cls-49" x="43" y="19.2">i</tspan><tspan class="cls-89" x="47" y="19.2">c</tspan><tspan class="cls-66" x="55" y="19.2">e</tspan></tspan></text><text class="cls-93" transform="translate(25.4 190.29)">S<tspan class="cls-57" x="9" y="0">u</tspan><tspan class="cls-63" x="18" y="0">r</tspan><tspan class="cls-58" x="23" y="0">p</tspan><tspan class="cls-49" x="32" y="0">l</tspan><tspan class="cls-57" x="36" y="0">u</tspan><tspan class="cls-92" x="45" y="0">s</tspan><tspan class="cls-88"><tspan x="18" y="19.2">P</tspan><tspan class="cls-63" x="28" y="19.2">r</tspan><tspan class="cls-49" x="33" y="19.2">i</tspan><tspan class="cls-89" x="37" y="19.2">c</tspan><tspan class="cls-66" x="45" y="19.2">e</tspan></tspan></text><line class="cls-94" x1="393.99" y1="364.16" x2="375.96" y2="364.16"/><polygon points="378.77 360.46 377.19 364.16 378.77 367.87 369.99 364.16 378.77 360.46"/><line class="cls-94" x1="393.99" y1="195.16" x2="375.96" y2="195.16"/><polygon points="378.77 191.46 377.19 195.16 378.77 198.87 369.99 195.16 378.77 191.46"/><circle class="cls-95" cx="193.97" cy="194.77" r="2"/><circle class="cls-96" cx="364.97" cy="194.77" r="2"/><g class="cls-97"><line class="cls-98" x1="203.62" y1="195.16" x2="355.36" y2="195.16"/><polygon class="cls-99" points="205.79 198.03 204.57 195.16 205.79 192.29 198.99 195.16 205.79 198.03"/><polygon class="cls-99" points="353.19 198.03 354.41 195.16 353.19 192.29 359.99 195.16 353.19 198.03"/></g><rect class="cls-1" x="220.49" y="184.66" width="114" height="20"/><text class="cls-93" transform="translate(224.99 199.66)">S<tspan class="cls-57" x="9" y="0">u</tspan><tspan class="cls-58" x="18" y="0">pp</tspan><tspan class="cls-49" x="36" y="0">l</tspan><tspan class="cls-59" x="40" y="0">y</tspan><tspan class="cls-60" x="48" y="0"> </tspan><tspan x="52" y="0">S</tspan><tspan class="cls-57" x="61" y="0">u</tspan><tspan class="cls-63" x="70" y="0">r</tspan><tspan class="cls-58" x="75" y="0">p</tspan><tspan class="cls-49" x="84" y="0">l</tspan><tspan class="cls-57" x="88" y="0">u</tspan><tspan class="cls-92" x="97" y="0">s</tspan></text><circle class="cls-100" cx="364.97" cy="534.77" r="2"/><line class="cls-83" x1="533.99" y1="534.66" x2="533.99" y2="642.66"/><line class="cls-101" x1="364.49" y1="365.16" x2="86.49" y2="365.16"/><text class="cls-102" transform="translate(401.16 189.66)">I<tspan class="cls-103" x="4" y="0">f</tspan><tspan class="cls-60" x="10" y="0"> </tspan><tspan class="cls-64" x="14" y="0">t</tspan><tspan class="cls-61" x="19" y="0">h</tspan><tspan class="cls-66" x="28" y="0">e</tspan><tspan class="cls-60" x="36" y="0"> </tspan><tspan class="cls-58" x="40" y="0">p</tspan><tspan class="cls-63" x="49" y="0">r</tspan><tspan class="cls-49" x="54" y="0">i</tspan><tspan class="cls-89" x="58" y="0">c</tspan><tspan class="cls-66" x="66" y="0">e</tspan><tspan class="cls-60" x="74" y="0"> </tspan><tspan class="cls-49" x="78" y="0">i</tspan><tspan class="cls-92" x="82" y="0">s</tspan><tspan class="cls-60" x="90" y="0"> </tspan><tspan class="cls-92" x="94" y="0">s</tspan><tspan class="cls-66" x="102" y="0">e</tspan><tspan class="cls-64" x="110" y="0">t</tspan><tspan class="cls-60" x="115" y="0"> </tspan><tspan class="cls-64" x="119" y="0">t</tspan><tspan class="cls-62" x="124" y="0">oo</tspan><tspan class="cls-60" x="142" y="0"> </tspan><tspan class="cls-61" x="146" y="0">h</tspan><tspan class="cls-49" x="155" y="0">i</tspan><tspan class="cls-58" x="159" y="0">g</tspan><tspan class="cls-61" x="168" y="0">h</tspan><tspan class="cls-104" x="177" y="0">,</tspan><tspan class="cls-64"><tspan x="0" y="19.2">t</tspan><tspan class="cls-61" x="5" y="19.2">h</tspan><tspan class="cls-66" x="14" y="19.2">e</tspan><tspan class="cls-86" x="22" y="19.2">n</tspan><tspan class="cls-60" x="31" y="19.2"> </tspan><tspan class="cls-65" x="35" y="19.2">a</tspan><tspan class="cls-60" x="44" y="19.2"> </tspan><tspan class="cls-92" x="48" y="19.2">s</tspan><tspan class="cls-57" x="56" y="19.2">u</tspan><tspan class="cls-58" x="65" y="19.2">pp</tspan><tspan class="cls-49" x="83" y="19.2">l</tspan><tspan class="cls-59" x="87" y="19.2">y</tspan><tspan class="cls-60" x="95" y="19.2"> </tspan><tspan class="cls-92" x="99" y="19.2">s</tspan><tspan class="cls-57" x="107" y="19.2">u</tspan><tspan class="cls-63" x="116" y="19.2">r</tspan><tspan class="cls-58" x="121" y="19.2">p</tspan><tspan class="cls-49" x="130" y="19.2">l</tspan><tspan class="cls-57" x="134" y="19.2">u</tspan><tspan class="cls-92" x="143" y="19.2">s</tspan><tspan class="cls-60" x="151" y="19.2"> </tspan><tspan class="cls-63" x="155" y="19.2">r</tspan><tspan class="cls-66" x="160" y="19.2">e</tspan><tspan class="cls-92" x="168" y="19.2">s</tspan><tspan class="cls-57" x="176" y="19.2">u</tspan><tspan class="cls-49" x="185" y="19.2">l</tspan><tspan x="189" y="19.2">t</tspan><tspan class="cls-92" x="194" y="19.2">s</tspan><tspan class="cls-105" x="202" y="19.2">.</tspan></tspan></text><line class="cls-94" x1="562.99" y1="535.16" x2="544.96" y2="535.16"/><polygon points="547.77 531.46 546.2 535.16 547.77 538.87 538.99 535.16 547.77 531.46"/><text class="cls-102" transform="translate(570.16 529.66)">I<tspan class="cls-103" x="4" y="0">f</tspan><tspan class="cls-60" x="10" y="0"> </tspan><tspan class="cls-64" x="14" y="0">t</tspan><tspan class="cls-61" x="19" y="0">h</tspan><tspan class="cls-66" x="28" y="0">e</tspan><tspan class="cls-60" x="36" y="0"> </tspan><tspan class="cls-58" x="40" y="0">p</tspan><tspan class="cls-63" x="49" y="0">r</tspan><tspan class="cls-49" x="54" y="0">i</tspan><tspan class="cls-89" x="58" y="0">c</tspan><tspan class="cls-66" x="66" y="0">e</tspan><tspan class="cls-60" x="74" y="0"> </tspan><tspan class="cls-49" x="78" y="0">i</tspan><tspan class="cls-92" x="82" y="0">s</tspan><tspan class="cls-60" x="90" y="0"> </tspan><tspan class="cls-92" x="94" y="0">s</tspan><tspan class="cls-66" x="102" y="0">e</tspan><tspan class="cls-64" x="110" y="0">t</tspan><tspan class="cls-60" x="115" y="0"> </tspan><tspan class="cls-64" x="119" y="0">t</tspan><tspan class="cls-62" x="124" y="0">oo</tspan><tspan class="cls-60" x="142" y="0"> </tspan><tspan class="cls-49" x="146" y="0">l</tspan><tspan class="cls-62" x="150" y="0">o</tspan><tspan class="cls-42" x="159" y="0">w</tspan><tspan class="cls-104" x="171" y="0">,</tspan><tspan class="cls-64"><tspan x="0" y="19.2">t</tspan><tspan class="cls-61" x="5" y="19.2">h</tspan><tspan class="cls-66" x="14" y="19.2">e</tspan><tspan class="cls-86" x="22" y="19.2">n</tspan><tspan class="cls-60" x="31" y="19.2"> </tspan><tspan class="cls-65" x="35" y="19.2">a</tspan><tspan class="cls-60" x="44" y="19.2"> </tspan><tspan class="cls-92" x="48" y="19.2">s</tspan><tspan class="cls-57" x="56" y="19.2">u</tspan><tspan class="cls-58" x="65" y="19.2">pp</tspan><tspan class="cls-49" x="83" y="19.2">l</tspan><tspan class="cls-59" x="87" y="19.2">y</tspan><tspan class="cls-60" x="95" y="19.2"> </tspan><tspan class="cls-92" x="99" y="19.2">s</tspan><tspan class="cls-61" x="107" y="19.2">h</tspan><tspan class="cls-62" x="116" y="19.2">o</tspan><tspan class="cls-63" x="125" y="19.2">r</tspan><tspan x="130" y="19.2">t</tspan><tspan class="cls-65" x="135" y="19.2">a</tspan><tspan class="cls-58" x="144" y="19.2">g</tspan><tspan class="cls-66" x="153" y="19.2">e</tspan><tspan class="cls-60" x="161" y="19.2"> </tspan><tspan class="cls-63" x="165" y="19.2">r</tspan><tspan class="cls-66" x="170" y="19.2">e</tspan><tspan class="cls-92" x="178" y="19.2">s</tspan><tspan class="cls-57" x="186" y="19.2">u</tspan><tspan class="cls-49" x="195" y="19.2">l</tspan><tspan x="199" y="19.2">t</tspan><tspan class="cls-92" x="204" y="19.2">s</tspan><tspan class="cls-105" x="212" y="19.2">.</tspan></tspan></text><circle class="cls-95" cx="533.97" cy="534.77" r="2"/></g></svg>